<?xml version="1.0" encoding="UTF-8"?>
<svg xmlns="http://www.w3.org/2000/svg" xmlns:xlink="http://www.w3.org/1999/xlink" viewBox="0 0 22 22" width="22px" height="22px">
<g id="surface141911208">
<path style=" stroke:none;fill-rule:nonzero;fill:rgb(0%,82.352942%,87.450981%);fill-opacity:1;" d="M 3.519531 1.324219 C 2.777344 1.324219 2.128906 1.535156 1.652344 1.921875 C 1.175781 2.304688 0.886719 2.875 0.886719 3.496094 C 0.886719 4.703125 1.964844 5.636719 3.394531 5.695312 C 3.4375 5.707031 3.476562 5.714844 3.519531 5.714844 C 4.292969 5.714844 4.949219 5.488281 5.417969 5.089844 C 5.886719 4.6875 6.15625 4.109375 6.15625 3.496094 C 6.15625 3.488281 6.15625 3.480469 6.152344 3.472656 C 6.085938 2.257812 5.003906 1.324219 3.519531 1.324219 Z M 3.519531 2.195312 C 4.667969 2.195312 5.234375 2.757812 5.28125 3.507812 C 5.28125 3.875 5.136719 4.183594 4.855469 4.425781 C 4.566406 4.671875 4.125 4.84375 3.519531 4.84375 C 2.375 4.84375 1.753906 4.222656 1.753906 3.496094 C 1.753906 3.132812 1.902344 2.835938 2.199219 2.597656 C 2.492188 2.359375 2.941406 2.195312 3.519531 2.195312 Z M 1.320312 6.601562 C 1.078125 6.601562 0.878906 6.796875 0.878906 7.039062 L 0.878906 19.800781 C 0.878906 20.042969 1.078125 20.238281 1.320312 20.238281 L 5.71875 20.238281 C 5.964844 20.238281 6.160156 20.042969 6.160156 19.800781 L 6.160156 7.039062 C 6.160156 6.796875 5.964844 6.601562 5.71875 6.601562 Z M 7.921875 6.601562 C 7.675781 6.601562 7.480469 6.796875 7.480469 7.039062 L 7.480469 19.800781 C 7.480469 20.042969 7.675781 20.238281 7.921875 20.238281 L 12.320312 20.238281 C 12.5625 20.238281 12.761719 20.042969 12.761719 19.800781 L 12.761719 12.539062 C 12.761719 11.683594 13.445312 11 14.300781 11 C 15.15625 11 15.839844 11.683594 15.839844 12.539062 L 15.839844 19.800781 C 15.839844 20.042969 16.035156 20.238281 16.28125 20.238281 L 20.679688 20.238281 C 20.921875 20.238281 21.121094 20.042969 21.121094 19.800781 L 21.121094 12.320312 C 21.121094 10.503906 20.585938 9.066406 19.6875 8.085938 C 18.789062 7.105469 17.535156 6.601562 16.1875 6.601562 C 14.46875 6.601562 13.429688 7.226562 12.761719 7.746094 L 12.761719 7.039062 C 12.761719 6.796875 12.5625 6.601562 12.320312 6.601562 Z M 1.761719 7.480469 L 5.28125 7.480469 L 5.28125 19.359375 L 1.761719 19.359375 Z M 8.359375 7.480469 L 11.878906 7.480469 L 11.878906 8.640625 C 11.878906 8.824219 11.992188 8.988281 12.164062 9.050781 C 12.332031 9.117188 12.527344 9.070312 12.648438 8.933594 C 12.648438 8.933594 13.953125 7.480469 16.1875 7.480469 C 17.320312 7.480469 18.3125 7.886719 19.039062 8.679688 C 19.765625 9.472656 20.238281 10.675781 20.238281 12.320312 L 20.238281 19.359375 L 16.71875 19.359375 L 16.71875 12.539062 C 16.71875 12.476562 16.707031 12.417969 16.683594 12.359375 C 16.585938 11.117188 15.566406 10.121094 14.300781 10.121094 C 12.96875 10.121094 11.878906 11.207031 11.878906 12.539062 L 11.878906 19.359375 L 8.359375 19.359375 Z M 8.359375 7.480469 "/>
</g>
</svg>
